<?xml version="1.0" encoding="UTF-8" standalone="no"?>
<!DOCTYPE svg PUBLIC "-//W3C//DTD SVG 1.1//EN"
 "http://www.w3.org/Graphics/SVG/1.1/DTD/svg11.dtd">
<!-- Generated by graphviz version 14.1.1 (20251213.1925)
 -->
<!-- Title: InheritanceTree Pages: 1 -->
<svg width="354pt" height="285pt"
 viewBox="0.00 0.00 354.00 285.00" xmlns="http://www.w3.org/2000/svg" xmlns:xlink="http://www.w3.org/1999/xlink">
<g id="graph0" class="graph" transform="scale(1 1) rotate(0) translate(4 280.5)">
<title>InheritanceTree</title>
<polygon fill="white" stroke="none" points="-4,4 -4,-280.5 349.5,-280.5 349.5,4 -4,4"/>
<text xml:space="preserve" text-anchor="middle" x="172.75" y="-7.2" font-family="Times New Roman,serif" font-size="14.00">simple_codec &#45; Inheritance Hierarchy</text>
<!-- CODEC_VALUE -->
<g id="node1" class="node">
<title>CODEC_VALUE</title>
<path fill="none" stroke="black" d="M103,-60.5C103,-60.5 14.25,-60.5 14.25,-60.5 8.25,-60.5 2.25,-54.5 2.25,-48.5 2.25,-48.5 2.25,-36.5 2.25,-36.5 2.25,-30.5 8.25,-24.5 14.25,-24.5 14.25,-24.5 103,-24.5 103,-24.5 109,-24.5 115,-30.5 115,-36.5 115,-36.5 115,-48.5 115,-48.5 115,-54.5 109,-60.5 103,-60.5"/>
<text xml:space="preserve" text-anchor="middle" x="58.62" y="-37.45" font-family="Times New Roman,serif" font-size="14.00">CODEC_VALUE</text>
</g>
<!-- SIMPLE_CODEC -->
<g id="node2" class="node">
<title>SIMPLE_CODEC</title>
<path fill="none" stroke="black" d="M105.25,-132.5C105.25,-132.5 12,-132.5 12,-132.5 6,-132.5 0,-126.5 0,-120.5 0,-120.5 0,-108.5 0,-108.5 0,-102.5 6,-96.5 12,-96.5 12,-96.5 105.25,-96.5 105.25,-96.5 111.25,-96.5 117.25,-102.5 117.25,-108.5 117.25,-108.5 117.25,-120.5 117.25,-120.5 117.25,-126.5 111.25,-132.5 105.25,-132.5"/>
<text xml:space="preserve" text-anchor="middle" x="58.62" y="-109.45" font-family="Times New Roman,serif" font-size="14.00">SIMPLE_CODEC</text>
</g>
<!-- LIB_TESTS -->
<g id="node3" class="node">
<title>LIB_TESTS</title>
<path fill="none" stroke="black" d="M88.75,-204.5C88.75,-204.5 28.5,-204.5 28.5,-204.5 22.5,-204.5 16.5,-198.5 16.5,-192.5 16.5,-192.5 16.5,-180.5 16.5,-180.5 16.5,-174.5 22.5,-168.5 28.5,-168.5 28.5,-168.5 88.75,-168.5 88.75,-168.5 94.75,-168.5 100.75,-174.5 100.75,-180.5 100.75,-180.5 100.75,-192.5 100.75,-192.5 100.75,-198.5 94.75,-204.5 88.75,-204.5"/>
<text xml:space="preserve" text-anchor="middle" x="58.62" y="-181.45" font-family="Times New Roman,serif" font-size="14.00">LIB_TESTS</text>
</g>
<!-- TEST_SET_BASE -->
<g id="node4" class="node">
<title>TEST_SET_BASE</title>
<path fill="none" stroke="black" d="M333.5,-204.5C333.5,-204.5 237.25,-204.5 237.25,-204.5 231.25,-204.5 225.25,-198.5 225.25,-192.5 225.25,-192.5 225.25,-180.5 225.25,-180.5 225.25,-174.5 231.25,-168.5 237.25,-168.5 237.25,-168.5 333.5,-168.5 333.5,-168.5 339.5,-168.5 345.5,-174.5 345.5,-180.5 345.5,-180.5 345.5,-192.5 345.5,-192.5 345.5,-198.5 339.5,-204.5 333.5,-204.5"/>
<text xml:space="preserve" text-anchor="middle" x="285.38" y="-181.45" font-family="Times New Roman,serif" font-size="14.00">TEST_SET_BASE</text>
</g>
<!-- LIB_TESTS&#45;&gt;TEST_SET_BASE -->
<g id="edge1" class="edge">
<title>LIB_TESTS&#45;&gt;TEST_SET_BASE</title>
<path fill="none" stroke="black" d="M101.01,-186.5C101.01,-186.5 213.29,-186.5 213.29,-186.5"/>
<polygon fill="none" stroke="black" points="213.29,-190 223.29,-186.5 213.29,-183 213.29,-190"/>
</g>
<!-- TEST_APP -->
<g id="node5" class="node">
<title>TEST_APP</title>
<path fill="none" stroke="black" d="M86.5,-276.5C86.5,-276.5 30.75,-276.5 30.75,-276.5 24.75,-276.5 18.75,-270.5 18.75,-264.5 18.75,-264.5 18.75,-252.5 18.75,-252.5 18.75,-246.5 24.75,-240.5 30.75,-240.5 30.75,-240.5 86.5,-240.5 86.5,-240.5 92.5,-240.5 98.5,-246.5 98.5,-252.5 98.5,-252.5 98.5,-264.5 98.5,-264.5 98.5,-270.5 92.5,-276.5 86.5,-276.5"/>
<text xml:space="preserve" text-anchor="middle" x="58.62" y="-253.45" font-family="Times New Roman,serif" font-size="14.00">TEST_APP</text>
</g>
</g>
</svg>
