<?xml version="1.0" encoding="UTF-8" standalone="no"?>
<!DOCTYPE svg PUBLIC "-//W3C//DTD SVG 1.1//EN"
 "http://www.w3.org/Graphics/SVG/1.1/DTD/svg11.dtd">
<!-- Generated by graphviz version 14.1.1 (20251213.1925)
 -->
<!-- Title: ContractCoverage Pages: 1 -->
<svg width="816pt" height="705pt"
 viewBox="48.00 48.00 768.00 657.00" xmlns="http://www.w3.org/2000/svg" xmlns:xlink="http://www.w3.org/1999/xlink">
<g id="graph0" class="graph" transform="scale(0.564955 0.564955) rotate(0) translate(88.96 1158.71)">
<title>ContractCoverage</title>
<polygon fill="white" stroke="none" points="-4,4 -4,-1073.75 1270.44,-1073.75 1270.44,4 -4,4"/>
<text xml:space="preserve" text-anchor="middle" x="633.22" y="-1056.25" font-family="Times New Roman,serif" font-size="10.00">simple_codec &#45; Contract Coverage</text>
<g id="clust1" class="cluster">
<title>cluster_CODEC_VALUE</title>
<polygon fill="white" stroke="black" points="690.19,0 690.19,-588.5 1266.44,-588.5 1266.44,0 690.19,0"/>
<text xml:space="preserve" text-anchor="middle" x="978.31" y="-571.2" font-family="Times New Roman,serif" font-size="14.00">CODEC_VALUE</text>
</g>
<g id="clust2" class="cluster">
<title>cluster_SIMPLE_CODEC</title>
<polygon fill="white" stroke="black" points="0,-138 0,-726.5 584.62,-726.5 584.62,-138 0,-138"/>
<text xml:space="preserve" text-anchor="middle" x="292.31" y="-709.2" font-family="Times New Roman,serif" font-size="14.00">SIMPLE_CODEC</text>
</g>
<g id="clust3" class="cluster">
<title>cluster_LIB_TESTS</title>
<polygon fill="white" stroke="black" points="275.56,0 275.56,-60.5 389.06,-60.5 389.06,0 275.56,0"/>
<text xml:space="preserve" text-anchor="middle" x="332.31" y="-43.2" font-family="Times New Roman,serif" font-size="14.00">LIB_TESTS</text>
</g>
<g id="clust4" class="cluster">
<title>cluster_TEST_APP</title>
<polygon fill="white" stroke="black" points="690.31,-690 690.31,-1050.5 1078.31,-1050.5 1078.31,-690 690.31,-690"/>
<text xml:space="preserve" text-anchor="middle" x="884.31" y="-1033.2" font-family="Times New Roman,serif" font-size="14.00">TEST_APP</text>
</g>
<g id="clust5" class="cluster">
<title>cluster_legend</title>
<polygon fill="lightyellow" stroke="black" points="367.94,-828.12 367.94,-1024.38 588.69,-1024.38 588.69,-828.12 367.94,-828.12"/>
<text xml:space="preserve" text-anchor="middle" x="478.31" y="-1010.88" font-family="Times New Roman,serif" font-size="10.00">Legend</text>
</g>
<!-- CODEC_VALUE_make_null -->
<g id="node1" class="node">
<title>CODEC_VALUE_make_null</title>
<polygon fill="khaki" stroke="black" points="1061.19,-540 1001.69,-540 1001.69,-504 1061.19,-504 1061.19,-540"/>
<text xml:space="preserve" text-anchor="middle" x="1031.44" y="-518.12" font-family="Times New Roman,serif" font-size="10.00">make_null</text>
</g>
<!-- CODEC_VALUE_make_boolean -->
<g id="node2" class="node">
<title>CODEC_VALUE_make_boolean</title>
<polygon fill="khaki" stroke="black" points="970.44,-360 894.44,-360 894.44,-324 970.44,-324 970.44,-360"/>
<text xml:space="preserve" text-anchor="middle" x="932.44" y="-338.12" font-family="Times New Roman,serif" font-size="10.00">make_boolean</text>
</g>
<!-- CODEC_VALUE_make_integer -->
<g id="node3" class="node">
<title>CODEC_VALUE_make_integer</title>
<polygon fill="khaki" stroke="black" points="1085.19,-240 1013.69,-240 1013.69,-204 1085.19,-204 1085.19,-240"/>
<text xml:space="preserve" text-anchor="middle" x="1049.44" y="-218.12" font-family="Times New Roman,serif" font-size="10.00">make_integer</text>
</g>
<!-- CODEC_VALUE_make_float -->
<g id="node4" class="node">
<title>CODEC_VALUE_make_float</title>
<polygon fill="khaki" stroke="black" points="1183.31,-60 1121.56,-60 1121.56,-24 1183.31,-24 1183.31,-60"/>
<text xml:space="preserve" text-anchor="middle" x="1152.44" y="-38.12" font-family="Times New Roman,serif" font-size="10.00">make_float</text>
</g>
<!-- CODEC_VALUE_make_string -->
<g id="node5" class="node">
<title>CODEC_VALUE_make_string</title>
<polygon fill="palegreen" stroke="black" points="1176.56,-240 1110.31,-240 1110.31,-204 1176.56,-204 1176.56,-240"/>
<text xml:space="preserve" text-anchor="middle" x="1143.44" y="-218.12" font-family="Times New Roman,serif" font-size="10.00">make_string</text>
</g>
<!-- CODEC_VALUE_make_array -->
<g id="node6" class="node">
<title>CODEC_VALUE_make_array</title>
<polygon fill="khaki" stroke="black" points="1017.06,-60 953.81,-60 953.81,-24 1017.06,-24 1017.06,-60"/>
<text xml:space="preserve" text-anchor="middle" x="985.44" y="-38.12" font-family="Times New Roman,serif" font-size="10.00">make_array</text>
</g>
<!-- CODEC_VALUE_make_object -->
<g id="node7" class="node">
<title>CODEC_VALUE_make_object</title>
<polygon fill="khaki" stroke="black" points="1154.69,-300 1086.19,-300 1086.19,-264 1154.69,-264 1154.69,-300"/>
<text xml:space="preserve" text-anchor="middle" x="1120.44" y="-278.12" font-family="Times New Roman,serif" font-size="10.00">make_object</text>
</g>
<!-- CODEC_VALUE_kind -->
<g id="node8" class="node">
<title>CODEC_VALUE_kind</title>
<polygon fill="lightgray" stroke="black" points="744.44,-564 690.44,-564 690.44,-528 744.44,-528 744.44,-564"/>
<text xml:space="preserve" text-anchor="middle" x="717.44" y="-542.12" font-family="Times New Roman,serif" font-size="10.00">kind</text>
</g>
<!-- CODEC_VALUE_is_null -->
<g id="node9" class="node">
<title>CODEC_VALUE_is_null</title>
<polygon fill="lightcoral" stroke="black" points="750.44,-438 696.44,-438 696.44,-402 750.44,-402 750.44,-438"/>
<text xml:space="preserve" text-anchor="middle" x="723.44" y="-416.13" font-family="Times New Roman,serif" font-size="10.00">is_null</text>
</g>
<!-- CODEC_VALUE_is_boolean -->
<g id="node10" class="node">
<title>CODEC_VALUE_is_boolean</title>
<polygon fill="lightcoral" stroke="black" points="792.94,-300 731.94,-300 731.94,-264 792.94,-264 792.94,-300"/>
<text xml:space="preserve" text-anchor="middle" x="762.44" y="-278.12" font-family="Times New Roman,serif" font-size="10.00">is_boolean</text>
</g>
<!-- CODEC_VALUE_is_integer -->
<g id="node11" class="node">
<title>CODEC_VALUE_is_integer</title>
<polygon fill="lightcoral" stroke="black" points="824.69,-558 768.19,-558 768.19,-522 824.69,-522 824.69,-558"/>
<text xml:space="preserve" text-anchor="middle" x="796.44" y="-536.12" font-family="Times New Roman,serif" font-size="10.00">is_integer</text>
</g>
<!-- CODEC_VALUE_is_float -->
<g id="node12" class="node">
<title>CODEC_VALUE_is_float</title>
<polygon fill="lightcoral" stroke="black" points="1266.44,-108 1212.44,-108 1212.44,-72 1266.44,-72 1266.44,-108"/>
<text xml:space="preserve" text-anchor="middle" x="1239.44" y="-86.12" font-family="Times New Roman,serif" font-size="10.00">is_float</text>
</g>
<!-- CODEC_VALUE_is_string -->
<g id="node13" class="node">
<title>CODEC_VALUE_is_string</title>
<polygon fill="lightcoral" stroke="black" points="756.44,-240 702.44,-240 702.44,-204 756.44,-204 756.44,-240"/>
<text xml:space="preserve" text-anchor="middle" x="729.44" y="-218.12" font-family="Times New Roman,serif" font-size="10.00">is_string</text>
</g>
<!-- CODEC_VALUE_is_array -->
<g id="node14" class="node">
<title>CODEC_VALUE_is_array</title>
<polygon fill="lightcoral" stroke="black" points="1260.44,-48 1206.44,-48 1206.44,-12 1260.44,-12 1260.44,-48"/>
<text xml:space="preserve" text-anchor="middle" x="1233.44" y="-26.12" font-family="Times New Roman,serif" font-size="10.00">is_array</text>
</g>
<!-- CODEC_VALUE_is_object -->
<g id="node15" class="node">
<title>CODEC_VALUE_is_object</title>
<polygon fill="lightcoral" stroke="black" points="1254.44,-420 1200.44,-420 1200.44,-384 1254.44,-384 1254.44,-420"/>
<text xml:space="preserve" text-anchor="middle" x="1227.44" y="-398.13" font-family="Times New Roman,serif" font-size="10.00">is_object</text>
</g>
<!-- CODEC_VALUE_as_boolean -->
<g id="node16" class="node">
<title>CODEC_VALUE_as_boolean</title>
<polygon fill="khaki" stroke="black" points="818.69,-498 756.19,-498 756.19,-462 818.69,-462 818.69,-498"/>
<text xml:space="preserve" text-anchor="middle" x="787.44" y="-476.12" font-family="Times New Roman,serif" font-size="10.00">as_boolean</text>
</g>
<!-- CODEC_VALUE_as_integer -->
<g id="node17" class="node">
<title>CODEC_VALUE_as_integer</title>
<polygon fill="khaki" stroke="black" points="1258.44,-240 1200.44,-240 1200.44,-204 1258.44,-204 1258.44,-240"/>
<text xml:space="preserve" text-anchor="middle" x="1229.44" y="-218.12" font-family="Times New Roman,serif" font-size="10.00">as_integer</text>
</g>
<!-- CODEC_VALUE_as_float -->
<g id="node18" class="node">
<title>CODEC_VALUE_as_float</title>
<polygon fill="khaki" stroke="black" points="900.44,-540 846.44,-540 846.44,-504 900.44,-504 900.44,-540"/>
<text xml:space="preserve" text-anchor="middle" x="873.44" y="-518.12" font-family="Times New Roman,serif" font-size="10.00">as_float</text>
</g>
<!-- CODEC_VALUE_as_string -->
<g id="node19" class="node">
<title>CODEC_VALUE_as_string</title>
<polygon fill="khaki" stroke="black" points="978.44,-540 924.44,-540 924.44,-504 978.44,-504 978.44,-540"/>
<text xml:space="preserve" text-anchor="middle" x="951.44" y="-518.12" font-family="Times New Roman,serif" font-size="10.00">as_string</text>
</g>
<!-- CODEC_VALUE_array_count -->
<g id="node20" class="node">
<title>CODEC_VALUE_array_count</title>
<polygon fill="khaki" stroke="black" points="1192.81,-120 1128.06,-120 1128.06,-84 1192.81,-84 1192.81,-120"/>
<text xml:space="preserve" text-anchor="middle" x="1160.44" y="-98.12" font-family="Times New Roman,serif" font-size="10.00">array_count</text>
</g>
<!-- CODEC_VALUE_array_item -->
<g id="node21" class="node">
<title>CODEC_VALUE_array_item</title>
<polygon fill="khaki" stroke="black" points="1145.19,-540 1085.69,-540 1085.69,-504 1145.19,-504 1145.19,-540"/>
<text xml:space="preserve" text-anchor="middle" x="1115.44" y="-518.12" font-family="Times New Roman,serif" font-size="10.00">array_item</text>
</g>
<!-- CODEC_VALUE_array_extend -->
<g id="node22" class="node">
<title>CODEC_VALUE_array_extend</title>
<polygon fill="palegreen" stroke="black" points="999.06,-480 929.81,-480 929.81,-444 999.06,-444 999.06,-480"/>
<text xml:space="preserve" text-anchor="middle" x="964.44" y="-458.12" font-family="Times New Roman,serif" font-size="10.00">array_extend</text>
</g>
<!-- CODEC_VALUE_object_count -->
<g id="node23" class="node">
<title>CODEC_VALUE_object_count</title>
<polygon fill="khaki" stroke="black" points="1090.44,-480 1020.44,-480 1020.44,-444 1090.44,-444 1090.44,-480"/>
<text xml:space="preserve" text-anchor="middle" x="1055.44" y="-458.12" font-family="Times New Roman,serif" font-size="10.00">object_count</text>
</g>
<!-- CODEC_VALUE_object_has -->
<g id="node24" class="node">
<title>CODEC_VALUE_object_has</title>
<polygon fill="khaki" stroke="black" points="834.56,-420 774.31,-420 774.31,-384 834.56,-384 834.56,-420"/>
<text xml:space="preserve" text-anchor="middle" x="804.44" y="-398.13" font-family="Times New Roman,serif" font-size="10.00">object_has</text>
</g>
<!-- CODEC_VALUE_object_item -->
<g id="node25" class="node">
<title>CODEC_VALUE_object_item</title>
<polygon fill="khaki" stroke="black" points="1018.81,-120 954.06,-120 954.06,-84 1018.81,-84 1018.81,-120"/>
<text xml:space="preserve" text-anchor="middle" x="986.44" y="-98.12" font-family="Times New Roman,serif" font-size="10.00">object_item</text>
</g>
<!-- CODEC_VALUE_object_put -->
<g id="node26" class="node">
<title>CODEC_VALUE_object_put</title>
<polygon fill="palegreen" stroke="black" points="1212.56,-180 1152.31,-180 1152.31,-144 1212.56,-144 1212.56,-180"/>
<text xml:space="preserve" text-anchor="middle" x="1182.44" y="-158.12" font-family="Times New Roman,serif" font-size="10.00">object_put</text>
</g>
<!-- CODEC_VALUE_object_keys_list -->
<g id="node27" class="node">
<title>CODEC_VALUE_object_keys_list</title>
<polygon fill="khaki" stroke="black" points="989.19,-276 905.69,-276 905.69,-240 989.19,-240 989.19,-276"/>
<text xml:space="preserve" text-anchor="middle" x="947.44" y="-254.12" font-family="Times New Roman,serif" font-size="10.00">object_keys_list</text>
</g>
<!-- CODEC_VALUE_string_item -->
<g id="node28" class="node">
<title>CODEC_VALUE_string_item</title>
<polygon fill="khaki" stroke="black" points="812.69,-96 750.19,-96 750.19,-60 812.69,-60 812.69,-96"/>
<text xml:space="preserve" text-anchor="middle" x="781.44" y="-74.12" font-family="Times New Roman,serif" font-size="10.00">string_item</text>
</g>
<!-- CODEC_VALUE_integer_item -->
<g id="node29" class="node">
<title>CODEC_VALUE_integer_item</title>
<polygon fill="khaki" stroke="black" points="877.31,-156 809.56,-156 809.56,-120 877.31,-120 877.31,-156"/>
<text xml:space="preserve" text-anchor="middle" x="843.44" y="-134.12" font-family="Times New Roman,serif" font-size="10.00">integer_item</text>
</g>
<!-- CODEC_VALUE_boolean_item -->
<g id="node30" class="node">
<title>CODEC_VALUE_boolean_item</title>
<polygon fill="khaki" stroke="black" points="930.56,-420 858.31,-420 858.31,-384 930.56,-384 930.56,-420"/>
<text xml:space="preserve" text-anchor="middle" x="894.44" y="-398.13" font-family="Times New Roman,serif" font-size="10.00">boolean_item</text>
</g>
<!-- CODEC_VALUE_with_string -->
<g id="node31" class="node">
<title>CODEC_VALUE_with_string</title>
<polygon fill="khaki" stroke="black" points="1239.06,-300 1175.81,-300 1175.81,-264 1239.06,-264 1239.06,-300"/>
<text xml:space="preserve" text-anchor="middle" x="1207.44" y="-278.12" font-family="Times New Roman,serif" font-size="10.00">with_string</text>
</g>
<!-- CODEC_VALUE_with_integer -->
<g id="node32" class="node">
<title>CODEC_VALUE_with_integer</title>
<polygon fill="khaki" stroke="black" points="848.69,-240 780.19,-240 780.19,-204 848.69,-204 848.69,-240"/>
<text xml:space="preserve" text-anchor="middle" x="814.44" y="-218.12" font-family="Times New Roman,serif" font-size="10.00">with_integer</text>
</g>
<!-- CODEC_VALUE_with_boolean -->
<g id="node33" class="node">
<title>CODEC_VALUE_with_boolean</title>
<polygon fill="khaki" stroke="black" points="1128.94,-180 1055.94,-180 1055.94,-144 1128.94,-144 1128.94,-180"/>
<text xml:space="preserve" text-anchor="middle" x="1092.44" y="-158.12" font-family="Times New Roman,serif" font-size="10.00">with_boolean</text>
</g>
<!-- CODEC_VALUE_with_null -->
<g id="node34" class="node">
<title>CODEC_VALUE_with_null</title>
<polygon fill="khaki" stroke="black" points="746.69,-36 690.19,-36 690.19,0 746.69,0 746.69,-36"/>
<text xml:space="preserve" text-anchor="middle" x="718.44" y="-14.12" font-family="Times New Roman,serif" font-size="10.00">with_null</text>
</g>
<!-- CODEC_VALUE_with_object -->
<g id="node35" class="node">
<title>CODEC_VALUE_with_object</title>
<polygon fill="khaki" stroke="black" points="881.19,-300 815.69,-300 815.69,-264 881.19,-264 881.19,-300"/>
<text xml:space="preserve" text-anchor="middle" x="848.44" y="-278.12" font-family="Times New Roman,serif" font-size="10.00">with_object</text>
</g>
<!-- CODEC_VALUE_with_array -->
<g id="node36" class="node">
<title>CODEC_VALUE_with_array</title>
<polygon fill="khaki" stroke="black" points="1098.56,-60 1038.31,-60 1038.31,-24 1098.56,-24 1098.56,-60"/>
<text xml:space="preserve" text-anchor="middle" x="1068.44" y="-38.12" font-family="Times New Roman,serif" font-size="10.00">with_array</text>
</g>
<!-- CODEC_VALUE_boolean_value -->
<g id="node37" class="node">
<title>CODEC_VALUE_boolean_value</title>
<polygon fill="lightgray" stroke="black" points="1066.81,-336 990.06,-336 990.06,-300 1066.81,-300 1066.81,-336"/>
<text xml:space="preserve" text-anchor="middle" x="1028.44" y="-314.12" font-family="Times New Roman,serif" font-size="10.00">boolean_value</text>
</g>
<!-- CODEC_VALUE_integer_value -->
<g id="node38" class="node">
<title>CODEC_VALUE_integer_value</title>
<polygon fill="lightgray" stroke="black" points="942.56,-216 870.31,-216 870.31,-180 942.56,-180 942.56,-216"/>
<text xml:space="preserve" text-anchor="middle" x="906.44" y="-194.12" font-family="Times New Roman,serif" font-size="10.00">integer_value</text>
</g>
<!-- CODEC_VALUE_float_value -->
<g id="node39" class="node">
<title>CODEC_VALUE_float_value</title>
<polygon fill="lightgray" stroke="black" points="782.69,-360 720.19,-360 720.19,-324 782.69,-324 782.69,-360"/>
<text xml:space="preserve" text-anchor="middle" x="751.44" y="-338.12" font-family="Times New Roman,serif" font-size="10.00">float_value</text>
</g>
<!-- CODEC_VALUE_string_value -->
<g id="node40" class="node">
<title>CODEC_VALUE_string_value</title>
<polygon fill="lightgray" stroke="black" points="1104.94,-120 1037.94,-120 1037.94,-84 1104.94,-84 1104.94,-120"/>
<text xml:space="preserve" text-anchor="middle" x="1071.44" y="-98.12" font-family="Times New Roman,serif" font-size="10.00">string_value</text>
</g>
<!-- CODEC_VALUE_array_items -->
<g id="node41" class="node">
<title>CODEC_VALUE_array_items</title>
<polygon fill="lightgray" stroke="black" points="1209.06,-360 1145.81,-360 1145.81,-324 1209.06,-324 1209.06,-360"/>
<text xml:space="preserve" text-anchor="middle" x="1177.44" y="-338.12" font-family="Times New Roman,serif" font-size="10.00">array_items</text>
</g>
<!-- CODEC_VALUE_object_entries -->
<g id="node42" class="node">
<title>CODEC_VALUE_object_entries</title>
<polygon fill="lightgray" stroke="black" points="1027.31,-420 953.56,-420 953.56,-384 1027.31,-384 1027.31,-420"/>
<text xml:space="preserve" text-anchor="middle" x="990.44" y="-398.13" font-family="Times New Roman,serif" font-size="10.00">object_entries</text>
</g>
<!-- CODEC_VALUE_object_keys -->
<g id="node43" class="node">
<title>CODEC_VALUE_object_keys</title>
<polygon fill="lightgray" stroke="black" points="869.19,-360 803.69,-360 803.69,-324 869.19,-324 869.19,-360"/>
<text xml:space="preserve" text-anchor="middle" x="836.44" y="-338.12" font-family="Times New Roman,serif" font-size="10.00">object_keys</text>
</g>
<!-- CODEC_VALUE_Kind_null -->
<g id="node44" class="node">
<title>CODEC_VALUE_Kind_null</title>
<polygon fill="lightgray" stroke="black" points="892.81,-96 834.06,-96 834.06,-60 892.81,-60 892.81,-96"/>
<text xml:space="preserve" text-anchor="middle" x="863.44" y="-74.12" font-family="Times New Roman,serif" font-size="10.00">Kind_null</text>
</g>
<!-- CODEC_VALUE_Kind_boolean -->
<g id="node45" class="node">
<title>CODEC_VALUE_Kind_boolean</title>
<polygon fill="lightgray" stroke="black" points="1125.06,-396 1049.81,-396 1049.81,-360 1125.06,-360 1125.06,-396"/>
<text xml:space="preserve" text-anchor="middle" x="1087.44" y="-374.12" font-family="Times New Roman,serif" font-size="10.00">Kind_boolean</text>
</g>
<!-- CODEC_VALUE_Kind_integer -->
<g id="node46" class="node">
<title>CODEC_VALUE_Kind_integer</title>
<polygon fill="lightgray" stroke="black" points="1036.81,-180 966.06,-180 966.06,-144 1036.81,-144 1036.81,-180"/>
<text xml:space="preserve" text-anchor="middle" x="1001.44" y="-158.12" font-family="Times New Roman,serif" font-size="10.00">Kind_integer</text>
</g>
<!-- CODEC_VALUE_Kind_float -->
<g id="node47" class="node">
<title>CODEC_VALUE_Kind_float</title>
<polygon fill="lightgray" stroke="black" points="1230.94,-516 1169.94,-516 1169.94,-480 1230.94,-480 1230.94,-516"/>
<text xml:space="preserve" text-anchor="middle" x="1200.44" y="-494.12" font-family="Times New Roman,serif" font-size="10.00">Kind_float</text>
</g>
<!-- CODEC_VALUE_Kind_string -->
<g id="node48" class="node">
<title>CODEC_VALUE_Kind_string</title>
<polygon fill="lightgray" stroke="black" points="1175.19,-456 1109.69,-456 1109.69,-420 1175.19,-420 1175.19,-456"/>
<text xml:space="preserve" text-anchor="middle" x="1142.44" y="-434.13" font-family="Times New Roman,serif" font-size="10.00">Kind_string</text>
</g>
<!-- CODEC_VALUE_Kind_array -->
<g id="node49" class="node">
<title>CODEC_VALUE_Kind_array</title>
<polygon fill="lightgray" stroke="black" points="788.69,-180 726.19,-180 726.19,-144 788.69,-144 788.69,-180"/>
<text xml:space="preserve" text-anchor="middle" x="757.44" y="-158.12" font-family="Times New Roman,serif" font-size="10.00">Kind_array</text>
</g>
<!-- CODEC_VALUE_Kind_object -->
<g id="node50" class="node">
<title>CODEC_VALUE_Kind_object</title>
<polygon fill="lightgray" stroke="black" points="907.31,-480 839.56,-480 839.56,-444 907.31,-444 907.31,-480"/>
<text xml:space="preserve" text-anchor="middle" x="873.44" y="-458.12" font-family="Times New Roman,serif" font-size="10.00">Kind_object</text>
</g>
<!-- SIMPLE_CODEC_make -->
<g id="node51" class="node">
<title>SIMPLE_CODEC_make</title>
<polygon fill="lightcoral" stroke="black" points="54,-174 0,-174 0,-138 54,-138 54,-174"/>
<text xml:space="preserve" text-anchor="middle" x="27" y="-152.13" font-family="Times New Roman,serif" font-size="10.00">make</text>
</g>
<!-- SIMPLE_CODEC_last_errors -->
<g id="node52" class="node">
<title>SIMPLE_CODEC_last_errors</title>
<polygon fill="lightgray" stroke="black" points="70,-702 12,-702 12,-666 70,-666 70,-702"/>
<text xml:space="preserve" text-anchor="middle" x="41" y="-680.12" font-family="Times New Roman,serif" font-size="10.00">last_errors</text>
</g>
<!-- SIMPLE_CODEC_has_errors -->
<g id="node53" class="node">
<title>SIMPLE_CODEC_has_errors</title>
<polygon fill="lightcoral" stroke="black" points="146.62,-702 89.37,-702 89.37,-666 146.62,-666 146.62,-702"/>
<text xml:space="preserve" text-anchor="middle" x="118" y="-680.12" font-family="Times New Roman,serif" font-size="10.00">has_errors</text>
</g>
<!-- SIMPLE_CODEC_errors_as_string -->
<g id="node54" class="node">
<title>SIMPLE_CODEC_errors_as_string</title>
<polygon fill="lightcoral" stroke="black" points="242.25,-354 161.75,-354 161.75,-318 242.25,-318 242.25,-354"/>
<text xml:space="preserve" text-anchor="middle" x="202" y="-332.12" font-family="Times New Roman,serif" font-size="10.00">errors_as_string</text>
</g>
<!-- SIMPLE_CODEC_detect_format -->
<g id="node55" class="node">
<title>SIMPLE_CODEC_detect_format</title>
<polygon fill="khaki" stroke="black" points="504.12,-474 431.87,-474 431.87,-438 504.12,-438 504.12,-474"/>
<text xml:space="preserve" text-anchor="middle" x="468" y="-452.13" font-family="Times New Roman,serif" font-size="10.00">detect_format</text>
</g>
<!-- SIMPLE_CODEC_is_toml_section -->
<g id="node56" class="node">
<title>SIMPLE_CODEC_is_toml_section</title>
<polygon fill="lightgray" stroke="black" points="338.62,-570 257.37,-570 257.37,-534 338.62,-534 338.62,-570"/>
<text xml:space="preserve" text-anchor="middle" x="298" y="-548.12" font-family="Times New Roman,serif" font-size="10.00">is_toml_section</text>
</g>
<!-- SIMPLE_CODEC_l_bracket_pos -->
<g id="node57" class="node">
<title>SIMPLE_CODEC_l_bracket_pos</title>
<polygon fill="lightgray" stroke="black" points="492.88,-594 419.12,-594 419.12,-558 492.88,-558 492.88,-594"/>
<text xml:space="preserve" text-anchor="middle" x="456" y="-572.12" font-family="Times New Roman,serif" font-size="10.00">l_bracket_pos</text>
</g>
<!-- SIMPLE_CODEC_l_between -->
<g id="node58" class="node">
<title>SIMPLE_CODEC_l_between</title>
<polygon fill="lightcoral" stroke="black" points="532.37,-366 473.62,-366 473.62,-330 532.37,-330 532.37,-366"/>
<text xml:space="preserve" text-anchor="middle" x="503" y="-344.13" font-family="Times New Roman,serif" font-size="10.00">l_between</text>
</g>
<!-- SIMPLE_CODEC_parse -->
<g id="node59" class="node">
<title>SIMPLE_CODEC_parse</title>
<polygon fill="khaki" stroke="black" points="318,-174 264,-174 264,-138 318,-138 318,-174"/>
<text xml:space="preserve" text-anchor="middle" x="291" y="-152.13" font-family="Times New Roman,serif" font-size="10.00">parse</text>
</g>
<!-- SIMPLE_CODEC_parse_json -->
<g id="node60" class="node">
<title>SIMPLE_CODEC_parse_json</title>
<polygon fill="khaki" stroke="black" points="94.75,-330 35.25,-330 35.25,-294 94.75,-294 94.75,-330"/>
<text xml:space="preserve" text-anchor="middle" x="65" y="-308.13" font-family="Times New Roman,serif" font-size="10.00">parse_json</text>
</g>
<!-- SIMPLE_CODEC_parse_toml -->
<g id="node61" class="node">
<title>SIMPLE_CODEC_parse_toml</title>
<polygon fill="khaki" stroke="black" points="558.5,-300 497.5,-300 497.5,-264 558.5,-264 558.5,-300"/>
<text xml:space="preserve" text-anchor="middle" x="528" y="-278.12" font-family="Times New Roman,serif" font-size="10.00">parse_toml</text>
</g>
<!-- SIMPLE_CODEC_parse_yaml -->
<g id="node62" class="node">
<title>SIMPLE_CODEC_parse_yaml</title>
<polygon fill="khaki" stroke="black" points="416.25,-186 353.75,-186 353.75,-150 416.25,-150 416.25,-186"/>
<text xml:space="preserve" text-anchor="middle" x="385" y="-164.12" font-family="Times New Roman,serif" font-size="10.00">parse_yaml</text>
</g>
<!-- SIMPLE_CODEC_parse_xml -->
<g id="node63" class="node">
<title>SIMPLE_CODEC_parse_xml</title>
<polygon fill="khaki" stroke="black" points="574,-594 516,-594 516,-558 574,-558 574,-594"/>
<text xml:space="preserve" text-anchor="middle" x="545" y="-572.12" font-family="Times New Roman,serif" font-size="10.00">parse_xml</text>
</g>
<!-- SIMPLE_CODEC_to_json -->
<g id="node64" class="node">
<title>SIMPLE_CODEC_to_json</title>
<polygon fill="khaki" stroke="black" points="72,-450 18,-450 18,-414 72,-414 72,-450"/>
<text xml:space="preserve" text-anchor="middle" x="45" y="-428.12" font-family="Times New Roman,serif" font-size="10.00">to_json</text>
</g>
<!-- SIMPLE_CODEC_to_toml -->
<g id="node65" class="node">
<title>SIMPLE_CODEC_to_toml</title>
<polygon fill="khaki" stroke="black" points="72,-510 18,-510 18,-474 72,-474 72,-510"/>
<text xml:space="preserve" text-anchor="middle" x="45" y="-488.13" font-family="Times New Roman,serif" font-size="10.00">to_toml</text>
</g>
<!-- SIMPLE_CODEC_to_yaml -->
<g id="node66" class="node">
<title>SIMPLE_CODEC_to_yaml</title>
<polygon fill="khaki" stroke="black" points="456,-690 402,-690 402,-654 456,-654 456,-690"/>
<text xml:space="preserve" text-anchor="middle" x="429" y="-668.12" font-family="Times New Roman,serif" font-size="10.00">to_yaml</text>
</g>
<!-- SIMPLE_CODEC_to_xml -->
<g id="node67" class="node">
<title>SIMPLE_CODEC_to_xml</title>
<polygon fill="khaki" stroke="black" points="378,-690 324,-690 324,-654 378,-654 378,-690"/>
<text xml:space="preserve" text-anchor="middle" x="351" y="-668.12" font-family="Times New Roman,serif" font-size="10.00">to_xml</text>
</g>
<!-- SIMPLE_CODEC_convert_format -->
<g id="node68" class="node">
<title>SIMPLE_CODEC_convert_format</title>
<polygon fill="khaki" stroke="black" points="198.12,-294 119.87,-294 119.87,-258 198.12,-258 198.12,-294"/>
<text xml:space="preserve" text-anchor="middle" x="159" y="-272.12" font-family="Times New Roman,serif" font-size="10.00">convert_format</text>
</g>
<!-- SIMPLE_CODEC_json_to_toml -->
<g id="node69" class="node">
<title>SIMPLE_CODEC_json_to_toml</title>
<polygon fill="lightcoral" stroke="black" points="310.37,-630 239.62,-630 239.62,-594 310.37,-594 310.37,-630"/>
<text xml:space="preserve" text-anchor="middle" x="275" y="-608.12" font-family="Times New Roman,serif" font-size="10.00">json_to_toml</text>
</g>
<!-- SIMPLE_CODEC_json_to_yaml -->
<g id="node70" class="node">
<title>SIMPLE_CODEC_json_to_yaml</title>
<polygon fill="lightcoral" stroke="black" points="216.12,-630 143.87,-630 143.87,-594 216.12,-594 216.12,-630"/>
<text xml:space="preserve" text-anchor="middle" x="180" y="-608.12" font-family="Times New Roman,serif" font-size="10.00">json_to_yaml</text>
</g>
<!-- SIMPLE_CODEC_toml_to_json -->
<g id="node71" class="node">
<title>SIMPLE_CODEC_toml_to_json</title>
<polygon fill="lightcoral" stroke="black" points="400.37,-630 329.62,-630 329.62,-594 400.37,-594 400.37,-630"/>
<text xml:space="preserve" text-anchor="middle" x="365" y="-608.12" font-family="Times New Roman,serif" font-size="10.00">toml_to_json</text>
</g>
<!-- SIMPLE_CODEC_toml_to_yaml -->
<g id="node72" class="node">
<title>SIMPLE_CODEC_toml_to_yaml</title>
<polygon fill="lightcoral" stroke="black" points="168.87,-510 95.12,-510 95.12,-474 168.87,-474 168.87,-510"/>
<text xml:space="preserve" text-anchor="middle" x="132" y="-488.13" font-family="Times New Roman,serif" font-size="10.00">toml_to_yaml</text>
</g>
<!-- SIMPLE_CODEC_yaml_to_json -->
<g id="node73" class="node">
<title>SIMPLE_CODEC_yaml_to_json</title>
<polygon fill="lightcoral" stroke="black" points="168.12,-450 95.87,-450 95.87,-414 168.12,-414 168.12,-450"/>
<text xml:space="preserve" text-anchor="middle" x="132" y="-428.12" font-family="Times New Roman,serif" font-size="10.00">yaml_to_json</text>
</g>
<!-- SIMPLE_CODEC_yaml_to_toml -->
<g id="node74" class="node">
<title>SIMPLE_CODEC_yaml_to_toml</title>
<polygon fill="lightcoral" stroke="black" points="438.88,-246 365.12,-246 365.12,-210 438.88,-210 438.88,-246"/>
<text xml:space="preserve" text-anchor="middle" x="402" y="-224.13" font-family="Times New Roman,serif" font-size="10.00">yaml_to_toml</text>
</g>
<!-- SIMPLE_CODEC_new_object -->
<g id="node75" class="node">
<title>SIMPLE_CODEC_new_object</title>
<polygon fill="lightcoral" stroke="black" points="544,-654 480,-654 480,-618 544,-618 544,-654"/>
<text xml:space="preserve" text-anchor="middle" x="512" y="-632.12" font-family="Times New Roman,serif" font-size="10.00">new_object</text>
</g>
<!-- SIMPLE_CODEC_new_array -->
<g id="node76" class="node">
<title>SIMPLE_CODEC_new_array</title>
<polygon fill="lightcoral" stroke="black" points="208.37,-234 149.62,-234 149.62,-198 208.37,-198 208.37,-234"/>
<text xml:space="preserve" text-anchor="middle" x="179" y="-212.12" font-family="Times New Roman,serif" font-size="10.00">new_array</text>
</g>
<!-- SIMPLE_CODEC_new_string -->
<g id="node77" class="node">
<title>SIMPLE_CODEC_new_string</title>
<polygon fill="lightcoral" stroke="black" points="120.87,-642 59.12,-642 59.12,-606 120.87,-606 120.87,-642"/>
<text xml:space="preserve" text-anchor="middle" x="90" y="-620.13" font-family="Times New Roman,serif" font-size="10.00">new_string</text>
</g>
<!-- SIMPLE_CODEC_new_integer -->
<g id="node78" class="node">
<title>SIMPLE_CODEC_new_integer</title>
<polygon fill="lightcoral" stroke="black" points="126.5,-234 59.5,-234 59.5,-198 126.5,-198 126.5,-234"/>
<text xml:space="preserve" text-anchor="middle" x="93" y="-212.12" font-family="Times New Roman,serif" font-size="10.00">new_integer</text>
</g>
<!-- SIMPLE_CODEC_new_float -->
<g id="node79" class="node">
<title>SIMPLE_CODEC_new_float</title>
<polygon fill="lightcoral" stroke="black" points="584.62,-426 527.37,-426 527.37,-390 584.62,-390 584.62,-426"/>
<text xml:space="preserve" text-anchor="middle" x="556" y="-404.12" font-family="Times New Roman,serif" font-size="10.00">new_float</text>
</g>
<!-- SIMPLE_CODEC_new_boolean -->
<g id="node80" class="node">
<title>SIMPLE_CODEC_new_boolean</title>
<polygon fill="lightcoral" stroke="black" points="532.75,-240 461.25,-240 461.25,-204 532.75,-204 532.75,-240"/>
<text xml:space="preserve" text-anchor="middle" x="497" y="-218.12" font-family="Times New Roman,serif" font-size="10.00">new_boolean</text>
</g>
<!-- SIMPLE_CODEC_new_null -->
<g id="node81" class="node">
<title>SIMPLE_CODEC_new_null</title>
<polygon fill="lightcoral" stroke="black" points="300.5,-690 245.5,-690 245.5,-654 300.5,-654 300.5,-690"/>
<text xml:space="preserve" text-anchor="middle" x="273" y="-668.12" font-family="Times New Roman,serif" font-size="10.00">new_null</text>
</g>
<!-- SIMPLE_CODEC_simple_json_to_codec -->
<g id="node82" class="node">
<title>SIMPLE_CODEC_simple_json_to_codec</title>
<polygon fill="khaki" stroke="black" points="372.12,-354 263.87,-354 263.87,-318 372.12,-318 372.12,-354"/>
<text xml:space="preserve" text-anchor="middle" x="318" y="-332.12" font-family="Times New Roman,serif" font-size="10.00">simple_json_to_codec</text>
</g>
<!-- SIMPLE_CODEC_codec_to_simple_json -->
<g id="node83" class="node">
<title>SIMPLE_CODEC_codec_to_simple_json</title>
<polygon fill="khaki" stroke="black" points="408.12,-474 299.87,-474 299.87,-438 408.12,-438 408.12,-474"/>
<text xml:space="preserve" text-anchor="middle" x="354" y="-452.13" font-family="Times New Roman,serif" font-size="10.00">codec_to_simple_json</text>
</g>
<!-- SIMPLE_CODEC_toml_to_codec -->
<g id="node84" class="node">
<title>SIMPLE_CODEC_toml_to_codec</title>
<polygon fill="khaki" stroke="black" points="472.75,-306 395.25,-306 395.25,-270 472.75,-270 472.75,-306"/>
<text xml:space="preserve" text-anchor="middle" x="434" y="-284.12" font-family="Times New Roman,serif" font-size="10.00">toml_to_codec</text>
</g>
<!-- SIMPLE_CODEC_codec_to_toml -->
<g id="node85" class="node">
<title>SIMPLE_CODEC_codec_to_toml</title>
<polygon fill="khaki" stroke="black" points="436.75,-534 359.25,-534 359.25,-498 436.75,-498 436.75,-534"/>
<text xml:space="preserve" text-anchor="middle" x="398" y="-512.12" font-family="Times New Roman,serif" font-size="10.00">codec_to_toml</text>
</g>
<!-- SIMPLE_CODEC_codec_value_to_toml_entry -->
<g id="node86" class="node">
<title>SIMPLE_CODEC_codec_value_to_toml_entry</title>
<polygon fill="khaki" stroke="black" points="322.75,-414 191.25,-414 191.25,-378 322.75,-378 322.75,-414"/>
<text xml:space="preserve" text-anchor="middle" x="257" y="-392.12" font-family="Times New Roman,serif" font-size="10.00">codec_value_to_toml_entry</text>
</g>
<!-- SIMPLE_CODEC_codec_to_toml_value -->
<g id="node87" class="node">
<title>SIMPLE_CODEC_codec_to_toml_value</title>
<polygon fill="khaki" stroke="black" points="452.62,-414 347.37,-414 347.37,-378 452.62,-378 452.62,-414"/>
<text xml:space="preserve" text-anchor="middle" x="400" y="-392.12" font-family="Times New Roman,serif" font-size="10.00">codec_to_toml_value</text>
</g>
<!-- SIMPLE_CODEC_yaml_to_codec -->
<g id="node88" class="node">
<title>SIMPLE_CODEC_yaml_to_codec</title>
<polygon fill="khaki" stroke="black" points="342.5,-294 263.5,-294 263.5,-258 342.5,-258 342.5,-294"/>
<text xml:space="preserve" text-anchor="middle" x="303" y="-272.12" font-family="Times New Roman,serif" font-size="10.00">yaml_to_codec</text>
</g>
<!-- SIMPLE_CODEC_codec_to_yaml -->
<g id="node89" class="node">
<title>SIMPLE_CODEC_codec_to_yaml</title>
<polygon fill="khaki" stroke="black" points="234.5,-570 155.5,-570 155.5,-534 234.5,-534 234.5,-570"/>
<text xml:space="preserve" text-anchor="middle" x="195" y="-548.12" font-family="Times New Roman,serif" font-size="10.00">codec_to_yaml</text>
</g>
<!-- SIMPLE_CODEC_json -->
<g id="node90" class="node">
<title>SIMPLE_CODEC_json</title>
<polygon fill="lightgray" stroke="black" points="222,-690 168,-690 168,-654 222,-654 222,-690"/>
<text xml:space="preserve" text-anchor="middle" x="195" y="-668.12" font-family="Times New Roman,serif" font-size="10.00">json</text>
</g>
<!-- SIMPLE_CODEC_toml -->
<g id="node91" class="node">
<title>SIMPLE_CODEC_toml</title>
<polygon fill="lightgray" stroke="black" points="492,-180 438,-180 438,-144 492,-144 492,-180"/>
<text xml:space="preserve" text-anchor="middle" x="465" y="-158.12" font-family="Times New Roman,serif" font-size="10.00">toml</text>
</g>
<!-- SIMPLE_CODEC_yaml -->
<g id="node92" class="node">
<title>SIMPLE_CODEC_yaml</title>
<polygon fill="lightgray" stroke="black" points="570,-180 516,-180 516,-144 570,-144 570,-180"/>
<text xml:space="preserve" text-anchor="middle" x="543" y="-158.12" font-family="Times New Roman,serif" font-size="10.00">yaml</text>
</g>
<!-- SIMPLE_CODEC_Format_unknown -->
<g id="node93" class="node">
<title>SIMPLE_CODEC_Format_unknown</title>
<polygon fill="lightgray" stroke="black" points="280.38,-510 191.62,-510 191.62,-474 280.38,-474 280.38,-510"/>
<text xml:space="preserve" text-anchor="middle" x="236" y="-488.13" font-family="Times New Roman,serif" font-size="10.00">Format_unknown</text>
</g>
<!-- SIMPLE_CODEC_Format_json -->
<g id="node94" class="node">
<title>SIMPLE_CODEC_Format_json</title>
<polygon fill="lightgray" stroke="black" points="330.5,-234 263.5,-234 263.5,-198 330.5,-198 330.5,-234"/>
<text xml:space="preserve" text-anchor="middle" x="297" y="-212.12" font-family="Times New Roman,serif" font-size="10.00">Format_json</text>
</g>
<!-- SIMPLE_CODEC_Format_toml -->
<g id="node95" class="node">
<title>SIMPLE_CODEC_Format_toml</title>
<polygon fill="lightgray" stroke="black" points="134.25,-570 65.75,-570 65.75,-534 134.25,-534 134.25,-570"/>
<text xml:space="preserve" text-anchor="middle" x="100" y="-548.12" font-family="Times New Roman,serif" font-size="10.00">Format_toml</text>
</g>
<!-- SIMPLE_CODEC_Format_yaml -->
<g id="node96" class="node">
<title>SIMPLE_CODEC_Format_yaml</title>
<polygon fill="lightgray" stroke="black" points="142,-390 72,-390 72,-354 142,-354 142,-390"/>
<text xml:space="preserve" text-anchor="middle" x="107" y="-368.12" font-family="Times New Roman,serif" font-size="10.00">Format_yaml</text>
</g>
<!-- SIMPLE_CODEC_Format_xml -->
<g id="node97" class="node">
<title>SIMPLE_CODEC_Format_xml</title>
<polygon fill="lightgray" stroke="black" points="526.75,-534 461.25,-534 461.25,-498 526.75,-498 526.75,-534"/>
<text xml:space="preserve" text-anchor="middle" x="494" y="-512.12" font-family="Times New Roman,serif" font-size="10.00">Format_xml</text>
</g>
<!-- LIB_TESTS_test_detect_json_object -->
<g id="node98" class="node">
<title>LIB_TESTS_test_detect_json_object</title>
<polygon fill="lightgray" stroke="black" points="389.06,-36 275.56,-36 275.56,0 389.06,0 389.06,-36"/>
<text xml:space="preserve" text-anchor="middle" x="332.31" y="-14.12" font-family="Times New Roman,serif" font-size="10.00">test_detect_json_object</text>
</g>
<!-- TEST_APP_make -->
<g id="node99" class="node">
<title>TEST_APP_make</title>
<polygon fill="lightcoral" stroke="black" points="744.31,-828 690.31,-828 690.31,-792 744.31,-792 744.31,-828"/>
<text xml:space="preserve" text-anchor="middle" x="717.31" y="-806.12" font-family="Times New Roman,serif" font-size="10.00">make</text>
</g>
<!-- TEST_APP_codec -->
<g id="node100" class="node">
<title>TEST_APP_codec</title>
<polygon fill="lightgray" stroke="black" points="750.31,-948 696.31,-948 696.31,-912 750.31,-912 750.31,-948"/>
<text xml:space="preserve" text-anchor="middle" x="723.31" y="-926.12" font-family="Times New Roman,serif" font-size="10.00">codec</text>
</g>
<!-- TEST_APP_assert -->
<g id="node101" class="node">
<title>TEST_APP_assert</title>
<polygon fill="lightcoral" stroke="black" points="1074.31,-852 1020.31,-852 1020.31,-816 1074.31,-816 1074.31,-852"/>
<text xml:space="preserve" text-anchor="middle" x="1047.31" y="-830.12" font-family="Times New Roman,serif" font-size="10.00">assert</text>
</g>
<!-- TEST_APP_run_all_tests -->
<g id="node102" class="node">
<title>TEST_APP_run_all_tests</title>
<polygon fill="lightcoral" stroke="black" points="866.56,-726 798.06,-726 798.06,-690 866.56,-690 866.56,-726"/>
<text xml:space="preserve" text-anchor="middle" x="832.31" y="-704.12" font-family="Times New Roman,serif" font-size="10.00">run_all_tests</text>
</g>
<!-- TEST_APP_test_codec_value_scalars -->
<g id="node103" class="node">
<title>TEST_APP_test_codec_value_scalars</title>
<polygon fill="lightcoral" stroke="black" points="905.06,-846 785.56,-846 785.56,-810 905.06,-810 905.06,-846"/>
<text xml:space="preserve" text-anchor="middle" x="845.31" y="-824.12" font-family="Times New Roman,serif" font-size="10.00">test_codec_value_scalars</text>
</g>
<!-- TEST_APP_test_codec_value_array -->
<g id="node104" class="node">
<title>TEST_APP_test_codec_value_array</title>
<polygon fill="lightcoral" stroke="black" points="1000.69,-906 887.94,-906 887.94,-870 1000.69,-870 1000.69,-906"/>
<text xml:space="preserve" text-anchor="middle" x="944.31" y="-884.12" font-family="Times New Roman,serif" font-size="10.00">test_codec_value_array</text>
</g>
<!-- TEST_APP_test_codec_value_object -->
<g id="node105" class="node">
<title>TEST_APP_test_codec_value_object</title>
<polygon fill="lightcoral" stroke="black" points="1048.31,-792 930.31,-792 930.31,-756 1048.31,-756 1048.31,-792"/>
<text xml:space="preserve" text-anchor="middle" x="989.31" y="-770.12" font-family="Times New Roman,serif" font-size="10.00">test_codec_value_object</text>
</g>
<!-- TEST_APP_test_fluent_api -->
<g id="node106" class="node">
<title>TEST_APP_test_fluent_api</title>
<polygon fill="lightcoral" stroke="black" points="971.06,-732 893.56,-732 893.56,-696 971.06,-696 971.06,-732"/>
<text xml:space="preserve" text-anchor="middle" x="932.31" y="-710.12" font-family="Times New Roman,serif" font-size="10.00">test_fluent_api</text>
</g>
<!-- TEST_APP_test_format_detection -->
<g id="node107" class="node">
<title>TEST_APP_test_format_detection</title>
<polygon fill="lightcoral" stroke="black" points="872.94,-786 767.69,-786 767.69,-750 872.94,-750 872.94,-786"/>
<text xml:space="preserve" text-anchor="middle" x="820.31" y="-764.12" font-family="Times New Roman,serif" font-size="10.00">test_format_detection</text>
</g>
<!-- TEST_APP_test_parse_json -->
<g id="node108" class="node">
<title>TEST_APP_test_parse_json</title>
<polygon fill="lightcoral" stroke="black" points="822.81,-1008 743.81,-1008 743.81,-972 822.81,-972 822.81,-1008"/>
<text xml:space="preserve" text-anchor="middle" x="783.31" y="-986.12" font-family="Times New Roman,serif" font-size="10.00">test_parse_json</text>
</g>
<!-- TEST_APP_test_parse_toml -->
<g id="node109" class="node">
<title>TEST_APP_test_parse_toml</title>
<polygon fill="lightcoral" stroke="black" points="926.56,-1008 846.06,-1008 846.06,-972 926.56,-972 926.56,-1008"/>
<text xml:space="preserve" text-anchor="middle" x="886.31" y="-986.12" font-family="Times New Roman,serif" font-size="10.00">test_parse_toml</text>
</g>
<!-- TEST_APP_test_parse_yaml -->
<g id="node110" class="node">
<title>TEST_APP_test_parse_yaml</title>
<polygon fill="lightcoral" stroke="black" points="1078.31,-726 996.31,-726 996.31,-690 1078.31,-690 1078.31,-726"/>
<text xml:space="preserve" text-anchor="middle" x="1037.31" y="-704.12" font-family="Times New Roman,serif" font-size="10.00">test_parse_yaml</text>
</g>
<!-- TEST_APP_test_to_json -->
<g id="node111" class="node">
<title>TEST_APP_test_to_json</title>
<polygon fill="lightcoral" stroke="black" points="1074.44,-1026 1008.19,-1026 1008.19,-990 1074.44,-990 1074.44,-1026"/>
<text xml:space="preserve" text-anchor="middle" x="1041.31" y="-1004.12" font-family="Times New Roman,serif" font-size="10.00">test_to_json</text>
</g>
<!-- TEST_APP_test_to_toml -->
<g id="node112" class="node">
<title>TEST_APP_test_to_toml</title>
<polygon fill="lightcoral" stroke="black" points="763.19,-888 695.44,-888 695.44,-852 763.19,-852 763.19,-888"/>
<text xml:space="preserve" text-anchor="middle" x="729.31" y="-866.12" font-family="Times New Roman,serif" font-size="10.00">test_to_toml</text>
</g>
<!-- TEST_APP_test_to_yaml -->
<g id="node113" class="node">
<title>TEST_APP_test_to_yaml</title>
<polygon fill="lightcoral" stroke="black" points="776.94,-726 707.69,-726 707.69,-690 776.94,-690 776.94,-726"/>
<text xml:space="preserve" text-anchor="middle" x="742.31" y="-704.12" font-family="Times New Roman,serif" font-size="10.00">test_to_yaml</text>
</g>
<!-- TEST_APP_test_json_to_toml -->
<g id="node114" class="node">
<title>TEST_APP_test_json_to_toml</title>
<polygon fill="lightcoral" stroke="black" points="1038.44,-966 948.19,-966 948.19,-930 1038.44,-930 1038.44,-966"/>
<text xml:space="preserve" text-anchor="middle" x="993.31" y="-944.12" font-family="Times New Roman,serif" font-size="10.00">test_json_to_toml</text>
</g>
<!-- TEST_APP_test_toml_to_json -->
<g id="node115" class="node">
<title>TEST_APP_test_toml_to_json</title>
<polygon fill="lightcoral" stroke="black" points="864.44,-948 774.19,-948 774.19,-912 864.44,-912 864.44,-948"/>
<text xml:space="preserve" text-anchor="middle" x="819.31" y="-926.12" font-family="Times New Roman,serif" font-size="10.00">test_toml_to_json</text>
</g>
<!-- legend_full -->
<g id="node116" class="node">
<title>legend_full</title>
<polygon fill="palegreen" stroke="black" points="578.19,-933.12 463.94,-933.12 463.94,-892.12 578.19,-892.12 578.19,-933.12"/>
<text xml:space="preserve" text-anchor="middle" x="521.06" y="-915.83" font-family="Times New Roman,serif" font-size="14.00">Full Contract</text>
<text xml:space="preserve" text-anchor="middle" x="521.06" y="-899.33" font-family="Times New Roman,serif" font-size="14.00">(require + ensure)</text>
</g>
<!-- legend_partial -->
<g id="node117" class="node">
<title>legend_partial</title>
<polygon fill="khaki" stroke="black" points="588.69,-869.12 471.44,-869.12 471.44,-828.12 588.69,-828.12 588.69,-869.12"/>
<text xml:space="preserve" text-anchor="middle" x="530.06" y="-851.82" font-family="Times New Roman,serif" font-size="14.00">Partial Contract</text>
<text xml:space="preserve" text-anchor="middle" x="530.06" y="-835.32" font-family="Times New Roman,serif" font-size="14.00">(require or ensure)</text>
</g>
<!-- legend_none -->
<g id="node118" class="node">
<title>legend_none</title>
<polygon fill="lightcoral" stroke="black" points="554.44,-991.62 471.69,-991.62 471.69,-955.62 554.44,-955.62 554.44,-991.62"/>
<text xml:space="preserve" text-anchor="middle" x="513.06" y="-968.58" font-family="Times New Roman,serif" font-size="14.00">No Contract</text>
</g>
<!-- legend_attr -->
<g id="node119" class="node">
<title>legend_attr</title>
<polygon fill="lightgray" stroke="black" points="448.44,-1005.12 383.69,-1005.12 383.69,-964.12 448.44,-964.12 448.44,-1005.12"/>
<text xml:space="preserve" text-anchor="middle" x="416.06" y="-987.83" font-family="Times New Roman,serif" font-size="14.00">Attribute</text>
<text xml:space="preserve" text-anchor="middle" x="416.06" y="-971.33" font-family="Times New Roman,serif" font-size="14.00">(n/a)</text>
</g>
<!-- legend_stats -->
<g id="node120" class="node">
<title>legend_stats</title>
<polygon fill="white" stroke="black" points="434.19,-943.12 367.94,-943.12 367.94,-836.12 440.19,-836.12 440.19,-937.12 434.19,-943.12"/>
<polyline fill="none" stroke="black" points="434.19,-943.12 434.19,-937.12"/>
<polyline fill="none" stroke="black" points="440.19,-937.12 434.19,-937.12"/>
<text xml:space="preserve" text-anchor="middle" x="404.06" y="-925.82" font-family="Times New Roman,serif" font-size="14.00">Statistics</text>
<text xml:space="preserve" text-anchor="middle" x="404.06" y="-909.32" font-family="Times New Roman,serif" font-size="14.00">Full: 3</text>
<text xml:space="preserve" text-anchor="middle" x="404.06" y="-892.82" font-family="Times New Roman,serif" font-size="14.00">Partial: 44</text>
<text xml:space="preserve" text-anchor="middle" x="404.06" y="-876.32" font-family="Times New Roman,serif" font-size="14.00">None: 40</text>
<text xml:space="preserve" text-anchor="middle" x="404.06" y="-859.82" font-family="Times New Roman,serif" font-size="14.00">Attr: 28</text>
<text xml:space="preserve" text-anchor="middle" x="404.06" y="-843.32" font-family="Times New Roman,serif" font-size="14.00">Total: 115</text>
</g>
</g>
</svg>
