<?xml version="1.0" encoding="UTF-8" standalone="no"?>
<!DOCTYPE svg PUBLIC "-//W3C//DTD SVG 1.1//EN"
 "http://www.w3.org/Graphics/SVG/1.1/DTD/svg11.dtd">
<!-- Generated by graphviz version 14.1.1 (20251213.1925)
 -->
<!-- Title: Dependencies Pages: 1 -->
<svg width="350pt" height="573pt"
 viewBox="0.00 0.00 350.00 573.00" xmlns="http://www.w3.org/2000/svg" xmlns:xlink="http://www.w3.org/1999/xlink">
<g id="graph0" class="graph" transform="scale(1 1) rotate(0) translate(4 568.5)">
<title>Dependencies</title>
<polygon fill="white" stroke="none" points="-4,4 -4,-568.5 345.75,-568.5 345.75,4 -4,4"/>
<text xml:space="preserve" text-anchor="middle" x="170.88" y="-7.2" font-family="Times New Roman,serif" font-size="14.00">simple_codec &#45; Dependencies</text>
<!-- simple_codec -->
<g id="node1" class="node">
<title>simple_codec</title>
<polygon fill="lightblue" stroke="black" points="91,-312.5 0,-312.5 0,-276.5 91,-276.5 91,-312.5"/>
<text xml:space="preserve" text-anchor="middle" x="45.5" y="-289.45" font-family="Times New Roman,serif" font-size="14.00">simple_codec</text>
</g>
<!-- simple_json -->
<g id="node2" class="node">
<title>simple_json</title>
<polygon fill="lightblue" stroke="black" points="329.38,-564.5 247.38,-564.5 247.38,-528.5 329.38,-528.5 329.38,-564.5"/>
<text xml:space="preserve" text-anchor="middle" x="288.38" y="-541.45" font-family="Times New Roman,serif" font-size="14.00">simple_json</text>
</g>
<!-- simple_codec&#45;&gt;simple_json -->
<g id="edge1" class="edge">
<title>simple_codec&#45;&gt;simple_json</title>
<path fill="none" stroke="black" stroke-dasharray="5,2" d="M22.75,-312.62C22.75,-370.4 22.75,-546.5 22.75,-546.5 22.75,-546.5 235.65,-546.5 235.65,-546.5"/>
<polygon fill="black" stroke="black" points="235.65,-550 245.65,-546.5 235.65,-543 235.65,-550"/>
</g>
<!-- simple_toml -->
<g id="node3" class="node">
<title>simple_toml</title>
<polygon fill="lightblue" stroke="black" points="330.88,-492.5 245.88,-492.5 245.88,-456.5 330.88,-456.5 330.88,-492.5"/>
<text xml:space="preserve" text-anchor="middle" x="288.38" y="-469.45" font-family="Times New Roman,serif" font-size="14.00">simple_toml</text>
</g>
<!-- simple_codec&#45;&gt;simple_toml -->
<g id="edge2" class="edge">
<title>simple_codec&#45;&gt;simple_toml</title>
<path fill="none" stroke="black" stroke-dasharray="5,2" d="M45.75,-312.75C45.75,-358.51 45.75,-474.5 45.75,-474.5 45.75,-474.5 234.04,-474.5 234.04,-474.5"/>
<polygon fill="black" stroke="black" points="234.04,-478 244.04,-474.5 234.04,-471 234.04,-478"/>
</g>
<!-- simple_xml -->
<g id="node4" class="node">
<title>simple_xml</title>
<polygon fill="lightblue" stroke="black" points="329,-420.5 247.75,-420.5 247.75,-384.5 329,-384.5 329,-420.5"/>
<text xml:space="preserve" text-anchor="middle" x="288.38" y="-397.45" font-family="Times New Roman,serif" font-size="14.00">simple_xml</text>
</g>
<!-- simple_codec&#45;&gt;simple_xml -->
<g id="edge3" class="edge">
<title>simple_codec&#45;&gt;simple_xml</title>
<path fill="none" stroke="black" stroke-dasharray="5,2" d="M67.75,-312.82C67.75,-343.63 67.75,-402.5 67.75,-402.5 67.75,-402.5 235.88,-402.5 235.88,-402.5"/>
<polygon fill="black" stroke="black" points="235.88,-406 245.88,-402.5 235.88,-399 235.88,-406"/>
</g>
<!-- simple_yaml -->
<g id="node5" class="node">
<title>simple_yaml</title>
<polygon fill="lightblue" stroke="black" points="332,-348.5 244.75,-348.5 244.75,-312.5 332,-312.5 332,-348.5"/>
<text xml:space="preserve" text-anchor="middle" x="288.38" y="-325.45" font-family="Times New Roman,serif" font-size="14.00">simple_yaml</text>
</g>
<!-- simple_codec&#45;&gt;simple_yaml -->
<g id="edge4" class="edge">
<title>simple_codec&#45;&gt;simple_yaml</title>
<path fill="none" stroke="black" stroke-dasharray="5,2" d="M91.25,-300.5C161.72,-300.5 288.75,-300.5 288.75,-300.5 288.75,-300.5 288.75,-301.65 288.75,-301.65"/>
<polygon fill="black" stroke="black" points="285.25,-300.5 288.75,-310.5 292.25,-300.5 285.25,-300.5"/>
</g>
<!-- simple_datetime -->
<g id="node6" class="node">
<title>simple_datetime</title>
<polygon fill="lightblue" stroke="black" points="341.75,-276.5 235,-276.5 235,-240.5 341.75,-240.5 341.75,-276.5"/>
<text xml:space="preserve" text-anchor="middle" x="288.38" y="-253.45" font-family="Times New Roman,serif" font-size="14.00">simple_datetime</text>
</g>
<!-- simple_codec&#45;&gt;simple_datetime -->
<g id="edge5" class="edge">
<title>simple_codec&#45;&gt;simple_datetime</title>
<path fill="none" stroke="black" stroke-dasharray="5,2" d="M91.04,-288.5C148.46,-288.5 239.75,-288.5 239.75,-288.5 239.75,-288.5 239.75,-287.35 239.75,-287.35"/>
<polygon fill="black" stroke="black" points="243.25,-288.5 239.75,-278.5 236.25,-288.5 243.25,-288.5"/>
</g>
<!-- simple_testing -->
<g id="node7" class="node">
<title>simple_testing</title>
<polygon fill="lightblue" stroke="black" points="336.12,-204.5 240.62,-204.5 240.62,-168.5 336.12,-168.5 336.12,-204.5"/>
<text xml:space="preserve" text-anchor="middle" x="288.38" y="-181.45" font-family="Times New Roman,serif" font-size="14.00">simple_testing</text>
</g>
<!-- simple_codec&#45;&gt;simple_testing -->
<g id="edge6" class="edge">
<title>simple_codec&#45;&gt;simple_testing</title>
<path fill="none" stroke="black" stroke-dasharray="5,2" d="M67.75,-276.18C67.75,-245.37 67.75,-186.5 67.75,-186.5 67.75,-186.5 228.72,-186.5 228.72,-186.5"/>
<polygon fill="black" stroke="black" points="228.72,-190 238.72,-186.5 228.72,-183 228.72,-190"/>
</g>
<!-- base -->
<g id="node8" class="node">
<title>base</title>
<polygon fill="lightgray" stroke="black" points="315.38,-132.5 261.38,-132.5 261.38,-96.5 315.38,-96.5 315.38,-132.5"/>
<text xml:space="preserve" text-anchor="middle" x="288.38" y="-109.45" font-family="Times New Roman,serif" font-size="14.00">base</text>
</g>
<!-- simple_codec&#45;&gt;base -->
<g id="edge7" class="edge">
<title>simple_codec&#45;&gt;base</title>
<path fill="none" stroke="black" stroke-dasharray="5,2" d="M45.75,-276.25C45.75,-230.49 45.75,-114.5 45.75,-114.5 45.75,-114.5 249.5,-114.5 249.5,-114.5"/>
<polygon fill="black" stroke="black" points="249.5,-118 259.5,-114.5 249.5,-111 249.5,-118"/>
</g>
<!-- testing -->
<g id="node9" class="node">
<title>testing</title>
<polygon fill="lightgray" stroke="black" points="315.38,-60.5 261.38,-60.5 261.38,-24.5 315.38,-24.5 315.38,-60.5"/>
<text xml:space="preserve" text-anchor="middle" x="288.38" y="-37.45" font-family="Times New Roman,serif" font-size="14.00">testing</text>
</g>
<!-- simple_codec&#45;&gt;testing -->
<g id="edge8" class="edge">
<title>simple_codec&#45;&gt;testing</title>
<path fill="none" stroke="black" stroke-dasharray="5,2" d="M22.75,-276.38C22.75,-218.6 22.75,-42.5 22.75,-42.5 22.75,-42.5 249.44,-42.5 249.44,-42.5"/>
<polygon fill="black" stroke="black" points="249.44,-46 259.44,-42.5 249.44,-39 249.44,-46"/>
</g>
</g>
</svg>
